<?xml version="1.0" encoding="UTF-8"?>
<svg xmlns="http://www.w3.org/2000/svg" xmlns:xlink="http://www.w3.org/1999/xlink" viewBox="0 0 30 30" width="30px" height="30px">
<g id="surface53670170">
<path style=" stroke:none;fill-rule:nonzero;fill:rgb(36.470589%,75.686276%,61.56863%);fill-opacity:1;" d="M 15 28.5 C 7.554688 28.5 1.5 22.445312 1.5 15 C 1.5 7.554688 7.554688 1.5 15 1.5 C 22.445312 1.5 28.5 7.554688 28.5 15 C 28.5 22.445312 22.445312 28.5 15 28.5 Z M 15 28.5 "/>
<path style=" stroke:none;fill-rule:nonzero;fill:rgb(33.725491%,40.000001%,58.039218%);fill-opacity:1;" d="M 15 2 C 22.167969 2 28 7.832031 28 15 C 28 22.167969 22.167969 28 15 28 C 7.832031 28 2 22.167969 2 15 C 2 7.832031 7.832031 2 15 2 M 15 1 C 7.269531 1 1 7.269531 1 15 C 1 22.730469 7.269531 29 15 29 C 22.730469 29 29 22.730469 29 15 C 29 7.269531 22.730469 1 15 1 Z M 15 1 "/>
<path style=" stroke:none;fill-rule:nonzero;fill:rgb(100%,100%,100%);fill-opacity:1;" d="M 8 14 L 22 14 L 22 16 L 8 16 Z M 8 14 "/>
<path style=" stroke:none;fill-rule:nonzero;fill:rgb(100%,100%,100%);fill-opacity:1;" d="M 16 8 L 16 22 L 14 22 L 14 8 Z M 16 8 "/>
</g>
</svg>
