<?xml version="1.0" encoding="UTF-8"?>
<svg xmlns="http://www.w3.org/2000/svg" xmlns:xlink="http://www.w3.org/1999/xlink" viewBox="0 0 30 30" width="30px" height="30px">
<g id="surface14057179">
<path style=" stroke:none;fill-rule:nonzero;fill:rgb(60.000002%,60.000002%,60.000002%);fill-opacity:1;" d="M 3.898438 27.460938 C 4.511719 26.402344 5.207031 25.148438 5.84375 23.957031 L 6.039062 23.59375 L 5.71875 23.332031 C 2.996094 21.132812 1.5 18.171875 1.5 15 C 1.5 8.660156 7.554688 3.5 15 3.5 C 22.445312 3.5 28.5 8.660156 28.5 15 C 28.5 21.339844 22.445312 26.5 15 26.5 C 13.507812 26.5 12.019531 26.28125 10.570312 25.851562 L 10.40625 25.804688 L 10.246094 25.867188 C 8.066406 26.726562 5.726562 27.308594 3.898438 27.460938 Z M 3.898438 27.460938 "/>
<path style=" stroke:none;fill-rule:nonzero;fill:rgb(22.352941%,23.921569%,24.705882%);fill-opacity:1;" d="M 15 4 C 22.167969 4 28 8.933594 28 15 C 28 21.066406 22.167969 26 15 26 C 13.558594 26 12.113281 25.789062 10.714844 25.375 L 10.382812 25.277344 L 10.0625 25.402344 C 8.296875 26.097656 6.425781 26.609375 4.824219 26.847656 C 5.304688 26 5.8125 25.078125 6.285156 24.191406 L 6.675781 23.464844 L 6.03125 22.941406 C 3.433594 20.839844 2 18.019531 2 15 C 2 8.933594 7.832031 4 15 4 M 15 3 C 7.269531 3 1 8.371094 1 15 C 1 18.441406 2.699219 21.53125 5.402344 23.722656 C 4.5625 25.292969 3.664062 26.886719 3 28 C 5.046875 28 7.914062 27.324219 10.429688 26.332031 C 11.863281 26.757812 13.398438 27 15 27 C 22.730469 27 29 21.628906 29 15 C 29 8.371094 22.730469 3 15 3 Z M 15 3 "/>
<path style=" stroke:none;fill-rule:nonzero;fill:rgb(22.352941%,23.921569%,24.705882%);fill-opacity:1;" d="M 6.480469 15.023438 C 6.480469 14.609375 6.601562 14.261719 6.851562 13.984375 C 7.097656 13.707031 7.46875 13.566406 7.964844 13.566406 C 8.457031 13.566406 8.835938 13.707031 9.089844 13.984375 C 9.347656 14.261719 9.476562 14.609375 9.476562 15.023438 C 9.476562 15.425781 9.347656 15.761719 9.089844 16.03125 C 8.835938 16.296875 8.457031 16.433594 7.964844 16.433594 C 7.46875 16.433594 7.097656 16.296875 6.851562 16.03125 C 6.601562 15.761719 6.480469 15.425781 6.480469 15.023438 Z M 13.5 15.023438 C 13.5 14.609375 13.625 14.261719 13.871094 13.984375 C 14.121094 13.707031 14.492188 13.566406 14.988281 13.566406 C 15.480469 13.566406 15.859375 13.707031 16.113281 13.984375 C 16.371094 14.261719 16.5 14.609375 16.5 15.023438 C 16.5 15.425781 16.371094 15.761719 16.113281 16.03125 C 15.859375 16.296875 15.480469 16.433594 14.988281 16.433594 C 14.492188 16.433594 14.121094 16.296875 13.871094 16.03125 C 13.625 15.761719 13.5 15.425781 13.5 15.023438 Z M 20.523438 15.023438 C 20.523438 14.609375 20.648438 14.261719 20.894531 13.984375 C 21.144531 13.707031 21.515625 13.566406 22.011719 13.566406 C 22.507812 13.566406 22.882812 13.707031 23.136719 13.984375 C 23.394531 14.261719 23.519531 14.609375 23.519531 15.023438 C 23.519531 15.425781 23.394531 15.761719 23.136719 16.03125 C 22.882812 16.296875 22.507812 16.433594 22.011719 16.433594 C 21.515625 16.433594 21.144531 16.296875 20.894531 16.03125 C 20.648438 15.761719 20.523438 15.425781 20.523438 15.023438 Z M 20.523438 15.023438 "/>
</g>
</svg>
