<?xml version="1.0" encoding="UTF-8"?>
<svg xmlns="http://www.w3.org/2000/svg" xmlns:xlink="http://www.w3.org/1999/xlink" viewBox="0 0 30 30" width="30px" height="30px">
<g id="surface73863877">
<path style=" stroke:none;fill-rule:nonzero;fill:rgb(48.627451%,55.686277%,82.352942%);fill-opacity:1;" d="M 2.5 28.5 L 2.5 11.277344 L 14.996094 3.585938 L 27.5 11.277344 L 27.5 28.5 Z M 2.5 28.5 "/>
<path style=" stroke:none;fill-rule:nonzero;fill:rgb(22.352941%,23.921569%,24.705882%);fill-opacity:1;" d="M 14.996094 4.175781 L 27 11.558594 L 27 28 L 3 28 L 3 11.558594 L 14.996094 4.175781 M 14.996094 3 L 2 11 L 2 29 L 28 29 L 28 11 Z M 14.996094 3 "/>
<path style=" stroke:none;fill-rule:nonzero;fill:rgb(48.627451%,55.686277%,82.352942%);fill-opacity:1;" d="M 3 25 L 27 25 L 27 28 L 3 28 Z M 3 25 "/>
<path style=" stroke:none;fill-rule:nonzero;fill:rgb(48.627451%,55.686277%,82.352942%);fill-opacity:1;" d="M 14.996094 4.644531 L 1.5 12.949219 L 1.5 9.894531 L 14.996094 1.585938 L 28.5 9.894531 L 28.5 12.953125 Z M 14.996094 4.644531 "/>
<path style=" stroke:none;fill-rule:nonzero;fill:rgb(22.352941%,23.921569%,24.705882%);fill-opacity:1;" d="M 14.996094 2.175781 L 28 10.175781 L 28 12.058594 L 15.523438 4.378906 L 14.996094 4.058594 L 14.472656 4.378906 L 2 12.054688 L 2 10.175781 L 14.996094 2.175781 M 14.996094 1 L 1 9.613281 L 1 13.847656 L 14.996094 5.230469 L 29 13.847656 L 29 9.613281 Z M 14.996094 1 "/>
<path style=" stroke:none;fill-rule:nonzero;fill:rgb(27.843139%,35.294119%,61.960787%);fill-opacity:1;" d="M 11.5 16.5 L 18.5 16.5 L 18.5 28.5 L 11.5 28.5 Z M 11.5 16.5 "/>
<path style=" stroke:none;fill-rule:nonzero;fill:rgb(22.352941%,23.921569%,24.705882%);fill-opacity:1;" d="M 18 17 L 18 28 L 12 28 L 12 17 L 18 17 M 19 16 L 11 16 L 11 29 L 19 29 Z M 19 16 "/>
<path style=" stroke:none;fill-rule:nonzero;fill:rgb(22.352941%,23.921569%,24.705882%);fill-opacity:1;" d="M 16.5 22 C 16.222656 22 16 22.222656 16 22.5 C 16 22.777344 16.222656 23 16.5 23 C 16.777344 23 17 22.777344 17 22.5 C 17 22.222656 16.777344 22 16.5 22 Z M 16.5 22 "/>
</g>
</svg>
